<mxfile host="app.diagrams.net" agent="Mozilla/5.0 (Windows NT 10.0; Win64; x64) AppleWebKit/537.36 (KHTML, like Gecko) Chrome/131.0.0.0 Safari/537.36" version="26.0.6">
  <diagram name="Página-1" id="781ejBfI7QkxmxFO-EV-">
    <mxGraphModel dx="1434" dy="738" grid="1" gridSize="10" guides="1" tooltips="1" connect="1" arrows="1" fold="1" page="1" pageScale="1" pageWidth="827" pageHeight="1169" math="0" shadow="0">
      <root>
        <mxCell id="0" />
        <mxCell id="1" parent="0" />
        <mxCell id="MNKRTJBf1flkwHHpE60U-2" value="Diagrama Conceitual" style="rounded=0;whiteSpace=wrap;html=1;fontSize=40;" vertex="1" parent="1">
          <mxGeometry x="430" y="160" width="527" height="60" as="geometry" />
        </mxCell>
        <mxCell id="MNKRTJBf1flkwHHpE60U-3" value="Sistema de cursos Gratuitos" style="rounded=0;whiteSpace=wrap;html=1;fontSize=25;" vertex="1" parent="1">
          <mxGeometry x="430" y="220" width="527" height="40" as="geometry" />
        </mxCell>
        <mxCell id="MNKRTJBf1flkwHHpE60U-169" style="edgeStyle=orthogonalEdgeStyle;rounded=0;orthogonalLoop=1;jettySize=auto;html=1;exitX=1;exitY=0.5;exitDx=0;exitDy=0;entryX=0;entryY=0.5;entryDx=0;entryDy=0;fontFamily=Helvetica;fontSize=12;fontColor=default;" edge="1" parent="1" source="MNKRTJBf1flkwHHpE60U-136" target="MNKRTJBf1flkwHHpE60U-137">
          <mxGeometry relative="1" as="geometry" />
        </mxCell>
        <mxCell id="MNKRTJBf1flkwHHpE60U-177" style="edgeStyle=orthogonalEdgeStyle;rounded=0;orthogonalLoop=1;jettySize=auto;html=1;exitX=0.5;exitY=1;exitDx=0;exitDy=0;entryX=0.5;entryY=0;entryDx=0;entryDy=0;fontFamily=Helvetica;fontSize=12;fontColor=default;" edge="1" parent="1" source="MNKRTJBf1flkwHHpE60U-136" target="MNKRTJBf1flkwHHpE60U-173">
          <mxGeometry relative="1" as="geometry" />
        </mxCell>
        <mxCell id="MNKRTJBf1flkwHHpE60U-136" value="Usuários" style="rounded=0;whiteSpace=wrap;html=1;strokeColor=default;align=center;verticalAlign=middle;fontFamily=Helvetica;fontSize=12;fontColor=default;fillColor=default;" vertex="1" parent="1">
          <mxGeometry x="120" y="280" width="80" height="40" as="geometry" />
        </mxCell>
        <mxCell id="MNKRTJBf1flkwHHpE60U-167" style="edgeStyle=orthogonalEdgeStyle;rounded=0;orthogonalLoop=1;jettySize=auto;html=1;exitX=1;exitY=0.5;exitDx=0;exitDy=0;entryX=0;entryY=0.5;entryDx=0;entryDy=0;fontFamily=Helvetica;fontSize=12;fontColor=default;" edge="1" parent="1" source="MNKRTJBf1flkwHHpE60U-137" target="MNKRTJBf1flkwHHpE60U-140">
          <mxGeometry relative="1" as="geometry" />
        </mxCell>
        <mxCell id="MNKRTJBf1flkwHHpE60U-137" value="Possui" style="rhombus;whiteSpace=wrap;html=1;rounded=0;strokeColor=default;align=center;verticalAlign=middle;fontFamily=Helvetica;fontSize=12;fontColor=default;fillColor=default;" vertex="1" parent="1">
          <mxGeometry x="280" y="280" width="80" height="40" as="geometry" />
        </mxCell>
        <mxCell id="MNKRTJBf1flkwHHpE60U-163" style="edgeStyle=orthogonalEdgeStyle;rounded=0;orthogonalLoop=1;jettySize=auto;html=1;exitX=1;exitY=0.5;exitDx=0;exitDy=0;fontFamily=Helvetica;fontSize=12;fontColor=default;" edge="1" parent="1" source="MNKRTJBf1flkwHHpE60U-140" target="MNKRTJBf1flkwHHpE60U-141">
          <mxGeometry relative="1" as="geometry" />
        </mxCell>
        <mxCell id="MNKRTJBf1flkwHHpE60U-140" value="Inscrições" style="rounded=0;whiteSpace=wrap;html=1;strokeColor=default;align=center;verticalAlign=middle;fontFamily=Helvetica;fontSize=12;fontColor=default;fillColor=default;" vertex="1" parent="1">
          <mxGeometry x="440" y="280" width="80" height="40" as="geometry" />
        </mxCell>
        <mxCell id="MNKRTJBf1flkwHHpE60U-164" style="edgeStyle=orthogonalEdgeStyle;rounded=0;orthogonalLoop=1;jettySize=auto;html=1;exitX=1;exitY=0.5;exitDx=0;exitDy=0;entryX=0;entryY=0.5;entryDx=0;entryDy=0;fontFamily=Helvetica;fontSize=12;fontColor=default;" edge="1" parent="1" source="MNKRTJBf1flkwHHpE60U-141" target="MNKRTJBf1flkwHHpE60U-142">
          <mxGeometry relative="1" as="geometry" />
        </mxCell>
        <mxCell id="MNKRTJBf1flkwHHpE60U-141" value="Possui" style="rhombus;whiteSpace=wrap;html=1;rounded=0;strokeColor=default;align=center;verticalAlign=middle;fontFamily=Helvetica;fontSize=12;fontColor=default;fillColor=default;" vertex="1" parent="1">
          <mxGeometry x="600" y="280" width="80" height="40" as="geometry" />
        </mxCell>
        <mxCell id="MNKRTJBf1flkwHHpE60U-192" style="edgeStyle=orthogonalEdgeStyle;rounded=0;orthogonalLoop=1;jettySize=auto;html=1;exitX=0.5;exitY=1;exitDx=0;exitDy=0;entryX=0.5;entryY=0;entryDx=0;entryDy=0;fontFamily=Helvetica;fontSize=12;fontColor=default;" edge="1" parent="1" source="MNKRTJBf1flkwHHpE60U-142" target="MNKRTJBf1flkwHHpE60U-190">
          <mxGeometry relative="1" as="geometry" />
        </mxCell>
        <mxCell id="MNKRTJBf1flkwHHpE60U-142" value="Cursos" style="rounded=0;whiteSpace=wrap;html=1;strokeColor=default;align=center;verticalAlign=middle;fontFamily=Helvetica;fontSize=12;fontColor=default;fillColor=default;" vertex="1" parent="1">
          <mxGeometry x="760" y="280" width="80" height="40" as="geometry" />
        </mxCell>
        <mxCell id="MNKRTJBf1flkwHHpE60U-166" style="edgeStyle=orthogonalEdgeStyle;rounded=0;orthogonalLoop=1;jettySize=auto;html=1;exitX=1;exitY=0.5;exitDx=0;exitDy=0;entryX=0;entryY=0.5;entryDx=0;entryDy=0;fontFamily=Helvetica;fontSize=12;fontColor=default;" edge="1" parent="1" source="MNKRTJBf1flkwHHpE60U-143" target="MNKRTJBf1flkwHHpE60U-144">
          <mxGeometry relative="1" as="geometry" />
        </mxCell>
        <mxCell id="MNKRTJBf1flkwHHpE60U-143" value="Possui" style="rhombus;whiteSpace=wrap;html=1;rounded=0;strokeColor=default;align=center;verticalAlign=middle;fontFamily=Helvetica;fontSize=12;fontColor=default;fillColor=default;" vertex="1" parent="1">
          <mxGeometry x="920" y="280" width="80" height="40" as="geometry" />
        </mxCell>
        <mxCell id="MNKRTJBf1flkwHHpE60U-186" style="edgeStyle=orthogonalEdgeStyle;rounded=0;orthogonalLoop=1;jettySize=auto;html=1;exitX=0.5;exitY=1;exitDx=0;exitDy=0;entryX=0.5;entryY=0;entryDx=0;entryDy=0;fontFamily=Helvetica;fontSize=12;fontColor=default;" edge="1" parent="1" source="MNKRTJBf1flkwHHpE60U-144" target="MNKRTJBf1flkwHHpE60U-185">
          <mxGeometry relative="1" as="geometry" />
        </mxCell>
        <mxCell id="MNKRTJBf1flkwHHpE60U-144" value="Aulas" style="rounded=0;whiteSpace=wrap;html=1;strokeColor=default;align=center;verticalAlign=middle;fontFamily=Helvetica;fontSize=12;fontColor=default;fillColor=default;" vertex="1" parent="1">
          <mxGeometry x="1080" y="280" width="80" height="40" as="geometry" />
        </mxCell>
        <mxCell id="MNKRTJBf1flkwHHpE60U-146" value="N" style="rounded=0;whiteSpace=wrap;html=1;strokeColor=default;align=center;verticalAlign=middle;fontFamily=Helvetica;fontSize=12;fontColor=default;fillColor=default;" vertex="1" parent="1">
          <mxGeometry x="530" y="280" width="20" height="20" as="geometry" />
        </mxCell>
        <mxCell id="MNKRTJBf1flkwHHpE60U-147" value="1" style="rounded=0;whiteSpace=wrap;html=1;strokeColor=default;align=center;verticalAlign=middle;fontFamily=Helvetica;fontSize=12;fontColor=default;fillColor=default;" vertex="1" parent="1">
          <mxGeometry x="210" y="280" width="20" height="20" as="geometry" />
        </mxCell>
        <mxCell id="MNKRTJBf1flkwHHpE60U-148" value="N" style="rounded=0;whiteSpace=wrap;html=1;strokeColor=default;align=center;verticalAlign=middle;fontFamily=Helvetica;fontSize=12;fontColor=default;fillColor=default;" vertex="1" parent="1">
          <mxGeometry x="414" y="280" width="20" height="20" as="geometry" />
        </mxCell>
        <mxCell id="MNKRTJBf1flkwHHpE60U-149" value="1" style="rounded=0;whiteSpace=wrap;html=1;strokeColor=default;align=center;verticalAlign=middle;fontFamily=Helvetica;fontSize=12;fontColor=default;fillColor=default;" vertex="1" parent="1">
          <mxGeometry x="730" y="280" width="20" height="20" as="geometry" />
        </mxCell>
        <mxCell id="MNKRTJBf1flkwHHpE60U-150" value="1" style="rounded=0;whiteSpace=wrap;html=1;strokeColor=default;align=center;verticalAlign=middle;fontFamily=Helvetica;fontSize=12;fontColor=default;fillColor=default;" vertex="1" parent="1">
          <mxGeometry x="850" y="280" width="20" height="20" as="geometry" />
        </mxCell>
        <mxCell id="MNKRTJBf1flkwHHpE60U-152" value="N" style="rounded=0;whiteSpace=wrap;html=1;strokeColor=default;align=center;verticalAlign=middle;fontFamily=Helvetica;fontSize=12;fontColor=default;fillColor=default;" vertex="1" parent="1">
          <mxGeometry x="1050" y="280" width="20" height="20" as="geometry" />
        </mxCell>
        <mxCell id="MNKRTJBf1flkwHHpE60U-165" style="edgeStyle=orthogonalEdgeStyle;rounded=0;orthogonalLoop=1;jettySize=auto;html=1;exitX=1;exitY=0.5;exitDx=0;exitDy=0;entryX=0.048;entryY=0.493;entryDx=0;entryDy=0;entryPerimeter=0;fontFamily=Helvetica;fontSize=12;fontColor=default;" edge="1" parent="1" source="MNKRTJBf1flkwHHpE60U-142" target="MNKRTJBf1flkwHHpE60U-143">
          <mxGeometry relative="1" as="geometry" />
        </mxCell>
        <mxCell id="MNKRTJBf1flkwHHpE60U-179" style="edgeStyle=orthogonalEdgeStyle;rounded=0;orthogonalLoop=1;jettySize=auto;html=1;exitX=0.5;exitY=1;exitDx=0;exitDy=0;entryX=0.5;entryY=0;entryDx=0;entryDy=0;fontFamily=Helvetica;fontSize=12;fontColor=default;" edge="1" parent="1" source="MNKRTJBf1flkwHHpE60U-170" target="MNKRTJBf1flkwHHpE60U-174">
          <mxGeometry relative="1" as="geometry" />
        </mxCell>
        <mxCell id="MNKRTJBf1flkwHHpE60U-170" value="Acompanhamentos" style="rounded=0;whiteSpace=wrap;html=1;strokeColor=default;align=center;verticalAlign=middle;fontFamily=Helvetica;fontSize=12;fontColor=default;fillColor=default;" vertex="1" parent="1">
          <mxGeometry x="105" y="480" width="110" height="40" as="geometry" />
        </mxCell>
        <mxCell id="MNKRTJBf1flkwHHpE60U-172" value="Categorias" style="rounded=0;whiteSpace=wrap;html=1;strokeColor=default;align=center;verticalAlign=middle;fontFamily=Helvetica;fontSize=12;fontColor=default;fillColor=default;" vertex="1" parent="1">
          <mxGeometry x="1070" y="480" width="100" height="40" as="geometry" />
        </mxCell>
        <mxCell id="MNKRTJBf1flkwHHpE60U-178" style="edgeStyle=orthogonalEdgeStyle;rounded=0;orthogonalLoop=1;jettySize=auto;html=1;exitX=0.5;exitY=1;exitDx=0;exitDy=0;entryX=0.5;entryY=0;entryDx=0;entryDy=0;fontFamily=Helvetica;fontSize=12;fontColor=default;" edge="1" parent="1" source="MNKRTJBf1flkwHHpE60U-173" target="MNKRTJBf1flkwHHpE60U-170">
          <mxGeometry relative="1" as="geometry" />
        </mxCell>
        <mxCell id="MNKRTJBf1flkwHHpE60U-173" value="Possui" style="rhombus;whiteSpace=wrap;html=1;rounded=0;strokeColor=default;align=center;verticalAlign=middle;fontFamily=Helvetica;fontSize=12;fontColor=default;fillColor=default;" vertex="1" parent="1">
          <mxGeometry x="120" y="380" width="80" height="40" as="geometry" />
        </mxCell>
        <mxCell id="MNKRTJBf1flkwHHpE60U-180" style="edgeStyle=orthogonalEdgeStyle;rounded=0;orthogonalLoop=1;jettySize=auto;html=1;exitX=0.5;exitY=1;exitDx=0;exitDy=0;entryX=0.5;entryY=0;entryDx=0;entryDy=0;fontFamily=Helvetica;fontSize=12;fontColor=default;" edge="1" parent="1" source="MNKRTJBf1flkwHHpE60U-174" target="MNKRTJBf1flkwHHpE60U-175">
          <mxGeometry relative="1" as="geometry" />
        </mxCell>
        <mxCell id="MNKRTJBf1flkwHHpE60U-174" value="Possui" style="rhombus;whiteSpace=wrap;html=1;rounded=0;strokeColor=default;align=center;verticalAlign=middle;fontFamily=Helvetica;fontSize=12;fontColor=default;fillColor=default;" vertex="1" parent="1">
          <mxGeometry x="120" y="585" width="80" height="40" as="geometry" />
        </mxCell>
        <mxCell id="MNKRTJBf1flkwHHpE60U-175" value="Avaliações" style="rounded=0;whiteSpace=wrap;html=1;strokeColor=default;align=center;verticalAlign=middle;fontFamily=Helvetica;fontSize=12;fontColor=default;fillColor=default;" vertex="1" parent="1">
          <mxGeometry x="110" y="680" width="100" height="40" as="geometry" />
        </mxCell>
        <mxCell id="MNKRTJBf1flkwHHpE60U-176" value="1" style="rounded=0;whiteSpace=wrap;html=1;strokeColor=default;align=center;verticalAlign=middle;fontFamily=Helvetica;fontSize=12;fontColor=default;fillColor=default;" vertex="1" parent="1">
          <mxGeometry x="170" y="320" width="20" height="20" as="geometry" />
        </mxCell>
        <mxCell id="MNKRTJBf1flkwHHpE60U-181" value="1" style="rounded=0;whiteSpace=wrap;html=1;strokeColor=default;align=center;verticalAlign=middle;fontFamily=Helvetica;fontSize=12;fontColor=default;fillColor=default;" vertex="1" parent="1">
          <mxGeometry x="170" y="460" width="20" height="20" as="geometry" />
        </mxCell>
        <mxCell id="MNKRTJBf1flkwHHpE60U-182" value="N" style="rounded=0;whiteSpace=wrap;html=1;strokeColor=default;align=center;verticalAlign=middle;fontFamily=Helvetica;fontSize=12;fontColor=default;fillColor=default;" vertex="1" parent="1">
          <mxGeometry x="170" y="520" width="20" height="20" as="geometry" />
        </mxCell>
        <mxCell id="MNKRTJBf1flkwHHpE60U-183" value="N" style="rounded=0;whiteSpace=wrap;html=1;strokeColor=default;align=center;verticalAlign=middle;fontFamily=Helvetica;fontSize=12;fontColor=default;fillColor=default;" vertex="1" parent="1">
          <mxGeometry x="170" y="660" width="20" height="20" as="geometry" />
        </mxCell>
        <mxCell id="MNKRTJBf1flkwHHpE60U-187" style="edgeStyle=orthogonalEdgeStyle;rounded=0;orthogonalLoop=1;jettySize=auto;html=1;exitX=0.5;exitY=1;exitDx=0;exitDy=0;entryX=0.5;entryY=0;entryDx=0;entryDy=0;fontFamily=Helvetica;fontSize=12;fontColor=default;" edge="1" parent="1" source="MNKRTJBf1flkwHHpE60U-185" target="MNKRTJBf1flkwHHpE60U-172">
          <mxGeometry relative="1" as="geometry" />
        </mxCell>
        <mxCell id="MNKRTJBf1flkwHHpE60U-185" value="Possui" style="rhombus;whiteSpace=wrap;html=1;rounded=0;strokeColor=default;align=center;verticalAlign=middle;fontFamily=Helvetica;fontSize=12;fontColor=default;fillColor=default;" vertex="1" parent="1">
          <mxGeometry x="1080" y="380" width="80" height="40" as="geometry" />
        </mxCell>
        <mxCell id="MNKRTJBf1flkwHHpE60U-188" value="1" style="rounded=0;whiteSpace=wrap;html=1;strokeColor=default;align=center;verticalAlign=middle;fontFamily=Helvetica;fontSize=12;fontColor=default;fillColor=default;" vertex="1" parent="1">
          <mxGeometry x="1130" y="320" width="20" height="20" as="geometry" />
        </mxCell>
        <mxCell id="MNKRTJBf1flkwHHpE60U-189" value="1" style="rounded=0;whiteSpace=wrap;html=1;strokeColor=default;align=center;verticalAlign=middle;fontFamily=Helvetica;fontSize=12;fontColor=default;fillColor=default;" vertex="1" parent="1">
          <mxGeometry x="1130" y="460" width="20" height="20" as="geometry" />
        </mxCell>
        <mxCell id="MNKRTJBf1flkwHHpE60U-193" style="edgeStyle=orthogonalEdgeStyle;rounded=0;orthogonalLoop=1;jettySize=auto;html=1;exitX=0.5;exitY=1;exitDx=0;exitDy=0;entryX=0.5;entryY=0;entryDx=0;entryDy=0;fontFamily=Helvetica;fontSize=12;fontColor=default;" edge="1" parent="1" source="MNKRTJBf1flkwHHpE60U-190" target="MNKRTJBf1flkwHHpE60U-191">
          <mxGeometry relative="1" as="geometry" />
        </mxCell>
        <mxCell id="MNKRTJBf1flkwHHpE60U-190" value="Possui" style="rhombus;whiteSpace=wrap;html=1;rounded=0;strokeColor=default;align=center;verticalAlign=middle;fontFamily=Helvetica;fontSize=12;fontColor=default;fillColor=default;" vertex="1" parent="1">
          <mxGeometry x="760" y="380" width="80" height="40" as="geometry" />
        </mxCell>
        <mxCell id="MNKRTJBf1flkwHHpE60U-191" value="Materiais de Apoio" style="rounded=0;whiteSpace=wrap;html=1;strokeColor=default;align=center;verticalAlign=middle;fontFamily=Helvetica;fontSize=12;fontColor=default;fillColor=default;" vertex="1" parent="1">
          <mxGeometry x="760" y="480" width="80" height="40" as="geometry" />
        </mxCell>
        <mxCell id="MNKRTJBf1flkwHHpE60U-194" value="1" style="rounded=0;whiteSpace=wrap;html=1;strokeColor=default;align=center;verticalAlign=middle;fontFamily=Helvetica;fontSize=12;fontColor=default;fillColor=default;" vertex="1" parent="1">
          <mxGeometry x="807" y="320" width="20" height="20" as="geometry" />
        </mxCell>
        <mxCell id="MNKRTJBf1flkwHHpE60U-195" value="N" style="rounded=0;whiteSpace=wrap;html=1;strokeColor=default;align=center;verticalAlign=middle;fontFamily=Helvetica;fontSize=12;fontColor=default;fillColor=default;" vertex="1" parent="1">
          <mxGeometry x="807" y="460" width="20" height="20" as="geometry" />
        </mxCell>
      </root>
    </mxGraphModel>
  </diagram>
</mxfile>
